solid OpenSCAD_Model
  facet normal -1 0 0
    outer loop
      vertex -72.5 0 0
      vertex -72.5 0 4
      vertex -72.5 34 0
    endloop
  endfacet
  facet normal -1 0 0
    outer loop
      vertex -72.5 34 0
      vertex -72.5 0 4
      vertex -72.5 2 4
    endloop
  endfacet
  facet normal -1 0 0
    outer loop
      vertex -72.5 34 0
      vertex -72.5 2 4
      vertex -72.5 32 4
    endloop
  endfacet
  facet normal -1 0 0
    outer loop
      vertex -72.5 34 0
      vertex -72.5 32 4
      vertex -72.5 34 4
    endloop
  endfacet
  facet normal 0 -1 0
    outer loop
      vertex -72.5 0 4
      vertex -72.5 0 0
      vertex 72.5 0 0
    endloop
  endfacet
  facet normal 0 -1 0
    outer loop
      vertex 0.73682 0 3.34002
      vertex -72.5 0 4
      vertex 72.5 0 0
    endloop
  endfacet
  facet normal 0 -1 0
    outer loop
      vertex 5 0 35
      vertex -72.5 0 4
      vertex 25 0 35
    endloop
  endfacet
  facet normal 0 -1 0
    outer loop
      vertex -5 0 35
      vertex -72.5 0 4
      vertex 5 0 35
    endloop
  endfacet
  facet normal 0 -1 0
    outer loop
      vertex -5 0 35
      vertex -25 0 35
      vertex -72.5 0 4
    endloop
  endfacet
  facet normal 0 -1 0
    outer loop
      vertex 5 0 53
      vertex 2 0 43
      vertex 5 0 35
    endloop
  endfacet
  facet normal 0 -1 0
    outer loop
      vertex 2 0 43
      vertex -5 0 35
      vertex 5 0 35
    endloop
  endfacet
  facet normal 0 -1 0
    outer loop
      vertex -5 0 53
      vertex -2 0 43
      vertex -2 0 53
    endloop
  endfacet
  facet normal 0 -1 0
    outer loop
      vertex 25 0 35
      vertex -72.5 0 4
      vertex -0.73682 0 4.65998
    endloop
  endfacet
  facet normal 0 -1 0
    outer loop
      vertex 25 0 35
      vertex -0.73682 0 4.65998
      vertex -0.587785 0 4.80902
    endloop
  endfacet
  facet normal 0 -1 0
    outer loop
      vertex 25 0 35
      vertex -0.587785 0 4.80902
      vertex -0.309017 0 4.95106
    endloop
  endfacet
  facet normal 0 -1 0
    outer loop
      vertex 25 0 35
      vertex -2.48665e-033 0 5
      vertex 72.5 0 4
    endloop
  endfacet
  facet normal 0 -1 0
    outer loop
      vertex 25 0 35
      vertex -0.309017 0 4.95106
      vertex -2.48665e-033 0 5
    endloop
  endfacet
  facet normal 0 -1 0
    outer loop
      vertex -2.48665e-033 0 5
      vertex 0.309017 0 4.95106
      vertex 72.5 0 4
    endloop
  endfacet
  facet normal 0 -1 0
    outer loop
      vertex 0.809017 0 4.58778
      vertex 0.951057 0 4.30902
      vertex 72.5 0 4
    endloop
  endfacet
  facet normal 0 -1 0
    outer loop
      vertex 0.309017 0 4.95106
      vertex 0.587785 0 4.80902
      vertex 72.5 0 4
    endloop
  endfacet
  facet normal 0 -1 0
    outer loop
      vertex 0.951057 0 4.30902
      vertex 1 0 4
      vertex 72.5 0 4
    endloop
  endfacet
  facet normal 0 -1 0
    outer loop
      vertex 0.587785 0 4.80902
      vertex 0.809017 0 4.58778
      vertex 72.5 0 4
    endloop
  endfacet
  facet normal 0 -1 0
    outer loop
      vertex 72.5 0 4
      vertex 0.951057 0 3.69098
      vertex 72.5 0 0
    endloop
  endfacet
  facet normal 0 -1 0
    outer loop
      vertex 0.951057 0 3.69098
      vertex 0.809017 0 3.41221
      vertex 72.5 0 0
    endloop
  endfacet
  facet normal 0 -1 0
    outer loop
      vertex 0.809017 0 3.41221
      vertex 0.73682 0 3.34002
      vertex 72.5 0 0
    endloop
  endfacet
  facet normal 0 -1 0
    outer loop
      vertex 1 0 4
      vertex 0.951057 0 3.69098
      vertex 72.5 0 4
    endloop
  endfacet
  facet normal 0 -1 0
    outer loop
      vertex 2 0 53
      vertex 2 0 43
      vertex 5 0 53
    endloop
  endfacet
  facet normal 0 -1 0
    outer loop
      vertex -2 0 43
      vertex -5 0 35
      vertex 2 0 43
    endloop
  endfacet
  facet normal 0 -1 0
    outer loop
      vertex -5 0 53
      vertex -5 0 35
      vertex -2 0 43
    endloop
  endfacet
  facet normal 0 -1 0
    outer loop
      vertex 0.73682 0 3.34002
      vertex -0.73682 0 4.65998
      vertex -72.5 0 4
    endloop
  endfacet
  facet normal 0 0 -1
    outer loop
      vertex -72.5 0 0
      vertex -72.5 34 0
      vertex 72.5 0 0
    endloop
  endfacet
  facet normal 0 0 -1
    outer loop
      vertex 72.5 0 0
      vertex -72.5 34 0
      vertex 72.5 34 0
    endloop
  endfacet
  facet normal 0 1 0
    outer loop
      vertex -72.5 34 0
      vertex -72.5 34 4
      vertex 72.5 34 0
    endloop
  endfacet
  facet normal 0 1 0
    outer loop
      vertex -0.951057 34 4.30902
      vertex -72.5 34 4
      vertex -25 34 35
    endloop
  endfacet
  facet normal 0 1 0
    outer loop
      vertex 72.5 34 0
      vertex -25 34 35
      vertex 25 34 35
    endloop
  endfacet
  facet normal 0 1 0
    outer loop
      vertex 72.5 34 0
      vertex 25 34 35
      vertex 72.5 34 4
    endloop
  endfacet
  facet normal 0 1 0
    outer loop
      vertex -1 34 4
      vertex -72.5 34 4
      vertex -0.951057 34 4.30902
    endloop
  endfacet
  facet normal 0 1 0
    outer loop
      vertex -0.809017 34 4.58779
      vertex -0.951057 34 4.30902
      vertex -25 34 35
    endloop
  endfacet
  facet normal 0 1 0
    outer loop
      vertex -0.951057 34 3.69098
      vertex -72.5 34 4
      vertex -1 34 4
    endloop
  endfacet
  facet normal 0 1 0
    outer loop
      vertex -0.809017 34 3.41222
      vertex -72.5 34 4
      vertex -0.951057 34 3.69098
    endloop
  endfacet
  facet normal 0 1 0
    outer loop
      vertex -0.587785 34 3.19098
      vertex -72.5 34 4
      vertex -0.809017 34 3.41222
    endloop
  endfacet
  facet normal 0 1 0
    outer loop
      vertex -0.309017 34 3.04894
      vertex -72.5 34 4
      vertex -0.587785 34 3.19098
    endloop
  endfacet
  facet normal 0 1 0
    outer loop
      vertex 4.16366e-015 34 3
      vertex -72.5 34 4
      vertex -0.309017 34 3.04894
    endloop
  endfacet
  facet normal 0 1 0
    outer loop
      vertex 72.5 34 0
      vertex -72.5 34 4
      vertex 4.16366e-015 34 3
    endloop
  endfacet
  facet normal 0 1 0
    outer loop
      vertex 0.587785 34 3.19098
      vertex 72.5 34 0
      vertex 0.309017 34 3.04894
    endloop
  endfacet
  facet normal 0 1 0
    outer loop
      vertex 0.809017 34 3.41222
      vertex 72.5 34 0
      vertex 0.587785 34 3.19098
    endloop
  endfacet
  facet normal 0 1 0
    outer loop
      vertex 0.951057 34 3.69098
      vertex 72.5 34 0
      vertex 0.809017 34 3.41222
    endloop
  endfacet
  facet normal 0 1 0
    outer loop
      vertex 1 34 4
      vertex 72.5 34 0
      vertex 0.951057 34 3.69098
    endloop
  endfacet
  facet normal 0 1 0
    outer loop
      vertex 0.951057 34 4.30902
      vertex 72.5 34 0
      vertex 1 34 4
    endloop
  endfacet
  facet normal 0 1 0
    outer loop
      vertex 0.309017 34 4.95106
      vertex -25 34 35
      vertex 0.587785 34 4.80902
    endloop
  endfacet
  facet normal 0 1 0
    outer loop
      vertex 72.5 34 0
      vertex 0.951057 34 4.30902
      vertex 0.809017 34 4.58779
    endloop
  endfacet
  facet normal 0 1 0
    outer loop
      vertex 72.5 34 0
      vertex 0.809017 34 4.58779
      vertex -25 34 35
    endloop
  endfacet
  facet normal 0 1 0
    outer loop
      vertex 0.809017 34 4.58779
      vertex 0.587785 34 4.80902
      vertex -25 34 35
    endloop
  endfacet
  facet normal 0 1 0
    outer loop
      vertex 0.309017 34 4.95106
      vertex 4.16366e-015 34 5
      vertex -25 34 35
    endloop
  endfacet
  facet normal 0 1 0
    outer loop
      vertex 4.16366e-015 34 5
      vertex -0.309017 34 4.95106
      vertex -25 34 35
    endloop
  endfacet
  facet normal 0 1 0
    outer loop
      vertex -0.309017 34 4.95106
      vertex -0.587785 34 4.80902
      vertex -25 34 35
    endloop
  endfacet
  facet normal 0 1 0
    outer loop
      vertex -0.587785 34 4.80902
      vertex -0.809017 34 4.58779
      vertex -25 34 35
    endloop
  endfacet
  facet normal 0 1 0
    outer loop
      vertex 0.309017 34 3.04894
      vertex 72.5 34 0
      vertex 4.16366e-015 34 3
    endloop
  endfacet
  facet normal -0.546537 0 0.837435
    outer loop
      vertex -72.5 34 4
      vertex -72.5 32 4
      vertex -25 32 35
    endloop
  endfacet
  facet normal -0.546537 0 0.837435
    outer loop
      vertex -25 34 35
      vertex -72.5 34 4
      vertex -25 32 35
    endloop
  endfacet
  facet normal 0 0 1
    outer loop
      vertex -72.5 32 4
      vertex -72.5 2 4
      vertex -5 2 4
    endloop
  endfacet
  facet normal 0 0 1
    outer loop
      vertex -5 32 4
      vertex -72.5 32 4
      vertex -5 2 4
    endloop
  endfacet
  facet normal 0 -1 0
    outer loop
      vertex -5 32 4
      vertex -1 32 8.8
      vertex -1 32 35
    endloop
  endfacet
  facet normal 0 -1 0
    outer loop
      vertex -72.5 32 4
      vertex -5 32 4
      vertex -25 32 35
    endloop
  endfacet
  facet normal 0 -1 0
    outer loop
      vertex -25 32 35
      vertex -5 32 4
      vertex -1 32 35
    endloop
  endfacet
  facet normal -0.546537 0 0.837435
    outer loop
      vertex -72.5 2 4
      vertex -72.5 0 4
      vertex -25 0 35
    endloop
  endfacet
  facet normal -0.546537 0 0.837435
    outer loop
      vertex -25 2 35
      vertex -72.5 2 4
      vertex -25 0 35
    endloop
  endfacet
  facet normal 0 1 0
    outer loop
      vertex -72.5 2 4
      vertex -25 2 35
      vertex -5 2 4
    endloop
  endfacet
  facet normal 0 1 0
    outer loop
      vertex -5 2 4
      vertex -25 2 35
      vertex -5 2 35
    endloop
  endfacet
  facet normal 0 1 0
    outer loop
      vertex -5 2 4
      vertex -5 2 35
      vertex -1.42857 2 27.8571
    endloop
  endfacet
  facet normal 0 1 0
    outer loop
      vertex -5 2 4
      vertex -1.42857 2 27.8571
      vertex -1 2 27.8571
    endloop
  endfacet
  facet normal 0 1 0
    outer loop
      vertex -5 2 4
      vertex -1 2 27.8571
      vertex -1 2 8.8
    endloop
  endfacet
  facet normal 0 0 1
    outer loop
      vertex -25 2 35
      vertex -25 0 35
      vertex -5 0 35
    endloop
  endfacet
  facet normal 0 0 1
    outer loop
      vertex -5 2 35
      vertex -25 2 35
      vertex -5 0 35
    endloop
  endfacet
  facet normal -1 0 0
    outer loop
      vertex -5 0 35
      vertex -5 0 53
      vertex -5 2 35
    endloop
  endfacet
  facet normal -1 0 0
    outer loop
      vertex -5 2 35
      vertex -5 0 53
      vertex -5 7 53
    endloop
  endfacet
  facet normal -1 0 0
    outer loop
      vertex -5 2 35
      vertex -5 7 53
      vertex -5 7 35
    endloop
  endfacet
  facet normal 0 0 1
    outer loop
      vertex -5 7 53
      vertex -5 0 53
      vertex -2 0 53
    endloop
  endfacet
  facet normal 0 0 1
    outer loop
      vertex -2 7 53
      vertex -5 7 53
      vertex -2 0 53
    endloop
  endfacet
  facet normal 1 0 0
    outer loop
      vertex -2 7 43
      vertex -2 7 53
      vertex -2 0 53
    endloop
  endfacet
  facet normal 1 0 0
    outer loop
      vertex -2 0 43
      vertex -2 7 43
      vertex -2 0 53
    endloop
  endfacet
  facet normal 0 0 1
    outer loop
      vertex 2 0 43
      vertex 2 7 43
      vertex -2 7 43
    endloop
  endfacet
  facet normal 0 0 1
    outer loop
      vertex -2 0 43
      vertex 2 0 43
      vertex -2 7 43
    endloop
  endfacet
  facet normal -1 0 0
    outer loop
      vertex 2 7 53
      vertex 2 7 43
      vertex 2 0 53
    endloop
  endfacet
  facet normal -1 0 0
    outer loop
      vertex 2 0 53
      vertex 2 7 43
      vertex 2 0 43
    endloop
  endfacet
  facet normal 0 0 1
    outer loop
      vertex 2 7 53
      vertex 2 0 53
      vertex 5 0 53
    endloop
  endfacet
  facet normal 0 0 1
    outer loop
      vertex 5 7 53
      vertex 2 7 53
      vertex 5 0 53
    endloop
  endfacet
  facet normal 1 0 0
    outer loop
      vertex 5 0 53
      vertex 5 0 35
      vertex 5 2 35
    endloop
  endfacet
  facet normal 1 0 0
    outer loop
      vertex 5 7 53
      vertex 5 0 53
      vertex 5 7 35
    endloop
  endfacet
  facet normal 1 0 0
    outer loop
      vertex 5 7 35
      vertex 5 0 53
      vertex 5 2 35
    endloop
  endfacet
  facet normal 0 0 1
    outer loop
      vertex 5 2 35
      vertex 5 0 35
      vertex 25 0 35
    endloop
  endfacet
  facet normal 0 0 1
    outer loop
      vertex 25 2 35
      vertex 5 2 35
      vertex 25 0 35
    endloop
  endfacet
  facet normal 0.546537 0 0.837435
    outer loop
      vertex 72.5 0 4
      vertex 72.5 2 4
      vertex 25 2 35
    endloop
  endfacet
  facet normal 0.546537 0 0.837435
    outer loop
      vertex 25 0 35
      vertex 72.5 0 4
      vertex 25 2 35
    endloop
  endfacet
  facet normal 1 0 0
    outer loop
      vertex 72.5 0 4
      vertex 72.5 0 0
      vertex 72.5 34 0
    endloop
  endfacet
  facet normal 1 0 0
    outer loop
      vertex 72.5 2 4
      vertex 72.5 0 4
      vertex 72.5 34 0
    endloop
  endfacet
  facet normal 1 0 0
    outer loop
      vertex 72.5 34 4
      vertex 72.5 32 4
      vertex 72.5 34 0
    endloop
  endfacet
  facet normal 1 0 0
    outer loop
      vertex 72.5 32 4
      vertex 72.5 2 4
      vertex 72.5 34 0
    endloop
  endfacet
  facet normal 1.22461e-016 1 1.36718e-016
    outer loop
      vertex -0.809017 1.8712e-017 4.58778
      vertex -0.73682 0 4.65998
      vertex -0.951057 7.42189e-017 4.30902
    endloop
  endfacet
  facet normal 1.22461e-016 1 1.36718e-016
    outer loop
      vertex -0.951057 7.42189e-017 4.30902
      vertex -0.73682 0 4.65998
      vertex 0.73682 0 3.34002
    endloop
  endfacet
  facet normal 1.22461e-016 1 1.36718e-016
    outer loop
      vertex -0.951057 7.42189e-017 4.30902
      vertex 0.73682 0 3.34002
      vertex 0.587785 3.86266e-017 3.19098
    endloop
  endfacet
  facet normal 1.22461e-016 1 1.36718e-016
    outer loop
      vertex -0.951057 7.42189e-017 4.30902
      vertex 0.587785 3.86266e-017 3.19098
      vertex 0.309017 9.21841e-017 3.04894
    endloop
  endfacet
  facet normal 1.22461e-016 1 1.36718e-016
    outer loop
      vertex -0.951057 7.42189e-017 4.30902
      vertex 0.309017 9.21841e-017 3.04894
      vertex 1.92292e-032 1.36718e-016 3
    endloop
  endfacet
  facet normal 1.22461e-016 1 1.36718e-016
    outer loop
      vertex -0.951057 7.42189e-017 4.30902
      vertex 1.92292e-032 1.36718e-016 3
      vertex -0.309017 1.67869e-016 3.04894
    endloop
  endfacet
  facet normal 1.22461e-016 1 1.36718e-016
    outer loop
      vertex -0.951057 7.42189e-017 4.30902
      vertex -0.309017 1.67869e-016 3.04894
      vertex -0.587785 1.82588e-016 3.19098
    endloop
  endfacet
  facet normal 1.22461e-016 1 1.36718e-016
    outer loop
      vertex -0.951057 7.42189e-017 4.30902
      vertex -0.587785 1.82588e-016 3.19098
      vertex -0.809017 1.79433e-016 3.41221
    endloop
  endfacet
  facet normal 1.22461e-016 1 1.36718e-016
    outer loop
      vertex -0.951057 7.42189e-017 4.30902
      vertex -0.809017 1.79433e-016 3.41221
      vertex -0.951057 1.58715e-016 3.69098
    endloop
  endfacet
  facet normal 1.22461e-016 1 1.36718e-016
    outer loop
      vertex -0.951057 7.42189e-017 4.30902
      vertex -0.951057 1.58715e-016 3.69098
      vertex -1 1.22461e-016 4
    endloop
  endfacet
  facet normal 0.707107 7.04165e-017 -0.707107
    outer loop
      vertex -0.809017 34 4.58779
      vertex -0.587785 34 4.80902
      vertex -0.587785 0 4.80902
    endloop
  endfacet
  facet normal 0.707107 7.04165e-017 -0.707107
    outer loop
      vertex -0.809017 1.8712e-017 4.58778
      vertex -0.809017 34 4.58779
      vertex -0.73682 0 4.65998
    endloop
  endfacet
  facet normal 0.707107 7.04165e-017 -0.707107
    outer loop
      vertex -0.73682 0 4.65998
      vertex -0.809017 34 4.58779
      vertex -0.587785 0 4.80902
    endloop
  endfacet
  facet normal -0.707107 -7.04165e-017 0.707107
    outer loop
      vertex 0.809017 0 3.41221
      vertex 0.809017 34 3.41222
      vertex 0.73682 0 3.34002
    endloop
  endfacet
  facet normal -0.707107 -7.04165e-017 0.707107
    outer loop
      vertex 0.73682 0 3.34002
      vertex 0.809017 34 3.41222
      vertex 0.587785 34 3.19098
    endloop
  endfacet
  facet normal -0.707107 -7.04165e-017 0.707107
    outer loop
      vertex 0.73682 0 3.34002
      vertex 0.587785 34 3.19098
      vertex 0.587785 3.86266e-017 3.19098
    endloop
  endfacet
  facet normal -0.891006 8.30664e-018 0.453992
    outer loop
      vertex 0.951057 34 3.69098
      vertex 0.809017 34 3.41222
      vertex 0.951057 0 3.69098
    endloop
  endfacet
  facet normal -0.891006 8.30664e-018 0.453992
    outer loop
      vertex 0.951057 0 3.69098
      vertex 0.809017 34 3.41222
      vertex 0.809017 0 3.41221
    endloop
  endfacet
  facet normal -0.987689 8.62179e-017 0.156433
    outer loop
      vertex 1 34 4
      vertex 0.951057 34 3.69098
      vertex 1 0 4
    endloop
  endfacet
  facet normal -0.987689 8.62179e-017 0.156433
    outer loop
      vertex 1 0 4
      vertex 0.951057 34 3.69098
      vertex 0.951057 0 3.69098
    endloop
  endfacet
  facet normal -0.987689 1.55688e-016 -0.156433
    outer loop
      vertex 1 34 4
      vertex 1 0 4
      vertex 0.951057 34 4.30902
    endloop
  endfacet
  facet normal -0.987689 1.55688e-016 -0.156433
    outer loop
      vertex 0.951057 34 4.30902
      vertex 1 0 4
      vertex 0.951057 0 4.30902
    endloop
  endfacet
  facet normal -0.891006 2.0992e-016 -0.453992
    outer loop
      vertex 0.951057 34 4.30902
      vertex 0.951057 0 4.30902
      vertex 0.809017 34 4.58779
    endloop
  endfacet
  facet normal -0.891006 2.0992e-016 -0.453992
    outer loop
      vertex 0.809017 34 4.58779
      vertex 0.951057 0 4.30902
      vertex 0.809017 0 4.58778
    endloop
  endfacet
  facet normal -0.707107 2.43602e-016 -0.707107
    outer loop
      vertex 0.809017 34 4.58779
      vertex 0.809017 0 4.58778
      vertex 0.587785 34 4.80902
    endloop
  endfacet
  facet normal -0.707107 2.43602e-016 -0.707107
    outer loop
      vertex 0.587785 34 4.80902
      vertex 0.809017 0 4.58778
      vertex 0.587785 0 4.80902
    endloop
  endfacet
  facet normal -0.453992 2.53439e-016 -0.891006
    outer loop
      vertex 0.587785 34 4.80902
      vertex 0.587785 0 4.80902
      vertex 0.309017 34 4.95106
    endloop
  endfacet
  facet normal -0.453992 2.53439e-016 -0.891006
    outer loop
      vertex 0.309017 34 4.95106
      vertex 0.587785 0 4.80902
      vertex 0.309017 0 4.95106
    endloop
  endfacet
  facet normal -0.156433 2.38468e-016 -0.987689
    outer loop
      vertex 0.309017 34 4.95106
      vertex 0.309017 0 4.95106
      vertex 4.16366e-015 34 5
    endloop
  endfacet
  facet normal -0.156433 2.38468e-016 -0.987689
    outer loop
      vertex 4.16366e-015 34 5
      vertex 0.309017 0 4.95106
      vertex -2.48665e-033 0 5
    endloop
  endfacet
  facet normal 0.156433 2.00154e-016 -0.987689
    outer loop
      vertex 4.16366e-015 34 5
      vertex -2.48665e-033 0 5
      vertex -0.309017 34 4.95106
    endloop
  endfacet
  facet normal 0.156433 2.00154e-016 -0.987689
    outer loop
      vertex -0.309017 34 4.95106
      vertex -2.48665e-033 0 5
      vertex -0.309017 0 4.95106
    endloop
  endfacet
  facet normal 0.453992 1.42247e-016 -0.891006
    outer loop
      vertex -0.309017 34 4.95106
      vertex -0.309017 0 4.95106
      vertex -0.587785 34 4.80902
    endloop
  endfacet
  facet normal 0.453992 1.42247e-016 -0.891006
    outer loop
      vertex -0.587785 34 4.80902
      vertex -0.309017 0 4.95106
      vertex -0.587785 0 4.80902
    endloop
  endfacet
  facet normal 0.546537 0 0.837435
    outer loop
      vertex 72.5 32 4
      vertex 72.5 34 4
      vertex 25 34 35
    endloop
  endfacet
  facet normal 0.546537 0 0.837435
    outer loop
      vertex 25 32 35
      vertex 72.5 32 4
      vertex 25 34 35
    endloop
  endfacet
  facet normal 0 0 1
    outer loop
      vertex -25 34 35
      vertex -25 32 35
      vertex -1 32 35
    endloop
  endfacet
  facet normal 0 0 1
    outer loop
      vertex 1 32 35
      vertex -25 34 35
      vertex -1 32 35
    endloop
  endfacet
  facet normal 0 0 1
    outer loop
      vertex -1 7 35
      vertex 1 7 35
      vertex -1 32 35
    endloop
  endfacet
  facet normal 0 0 1
    outer loop
      vertex 1 7 35
      vertex 1 32 35
      vertex -1 32 35
    endloop
  endfacet
  facet normal 0 0 1
    outer loop
      vertex 1 32 35
      vertex 25 32 35
      vertex -25 34 35
    endloop
  endfacet
  facet normal 0 0 1
    outer loop
      vertex 25 32 35
      vertex 25 34 35
      vertex -25 34 35
    endloop
  endfacet
  facet normal 0.987689 -8.62179e-017 -0.156433
    outer loop
      vertex -1 34 4
      vertex -0.951057 34 4.30902
      vertex -0.951057 7.42189e-017 4.30902
    endloop
  endfacet
  facet normal 0.987689 -8.62179e-017 -0.156433
    outer loop
      vertex -1 1.22461e-016 4
      vertex -1 34 4
      vertex -0.951057 7.42189e-017 4.30902
    endloop
  endfacet
  facet normal 0.891006 -8.30664e-018 -0.453992
    outer loop
      vertex -0.951057 34 4.30902
      vertex -0.809017 34 4.58779
      vertex -0.809017 1.8712e-017 4.58778
    endloop
  endfacet
  facet normal 0.891006 -8.30664e-018 -0.453992
    outer loop
      vertex -0.951057 7.42189e-017 4.30902
      vertex -0.951057 34 4.30902
      vertex -0.809017 1.8712e-017 4.58778
    endloop
  endfacet
  facet normal -0.453992 -1.42247e-016 0.891006
    outer loop
      vertex 0.587785 3.86266e-017 3.19098
      vertex 0.587785 34 3.19098
      vertex 0.309017 34 3.04894
    endloop
  endfacet
  facet normal -0.453992 -1.42247e-016 0.891006
    outer loop
      vertex 0.309017 9.21841e-017 3.04894
      vertex 0.587785 3.86266e-017 3.19098
      vertex 0.309017 34 3.04894
    endloop
  endfacet
  facet normal -0.156433 -2.00154e-016 0.987689
    outer loop
      vertex 0.309017 9.21841e-017 3.04894
      vertex 0.309017 34 3.04894
      vertex 4.16366e-015 34 3
    endloop
  endfacet
  facet normal -0.156433 -2.00154e-016 0.987689
    outer loop
      vertex 1.92292e-032 1.36718e-016 3
      vertex 0.309017 9.21841e-017 3.04894
      vertex 4.16366e-015 34 3
    endloop
  endfacet
  facet normal 0.156433 -2.38468e-016 0.987689
    outer loop
      vertex 1.92292e-032 1.36718e-016 3
      vertex 4.16366e-015 34 3
      vertex -0.309017 34 3.04894
    endloop
  endfacet
  facet normal 0.156433 -2.38468e-016 0.987689
    outer loop
      vertex -0.309017 1.67869e-016 3.04894
      vertex 1.92292e-032 1.36718e-016 3
      vertex -0.309017 34 3.04894
    endloop
  endfacet
  facet normal 0.453992 -2.53439e-016 0.891006
    outer loop
      vertex -0.309017 1.67869e-016 3.04894
      vertex -0.309017 34 3.04894
      vertex -0.587785 34 3.19098
    endloop
  endfacet
  facet normal 0.453992 -2.53439e-016 0.891006
    outer loop
      vertex -0.587785 1.82588e-016 3.19098
      vertex -0.309017 1.67869e-016 3.04894
      vertex -0.587785 34 3.19098
    endloop
  endfacet
  facet normal 0.707107 -2.43602e-016 0.707107
    outer loop
      vertex -0.587785 1.82588e-016 3.19098
      vertex -0.587785 34 3.19098
      vertex -0.809017 34 3.41222
    endloop
  endfacet
  facet normal 0.707107 -2.43602e-016 0.707107
    outer loop
      vertex -0.809017 1.79433e-016 3.41221
      vertex -0.587785 1.82588e-016 3.19098
      vertex -0.809017 34 3.41222
    endloop
  endfacet
  facet normal 0.891006 -2.0992e-016 0.453992
    outer loop
      vertex -0.809017 1.79433e-016 3.41221
      vertex -0.809017 34 3.41222
      vertex -0.951057 34 3.69098
    endloop
  endfacet
  facet normal 0.891006 -2.0992e-016 0.453992
    outer loop
      vertex -0.951057 1.58715e-016 3.69098
      vertex -0.809017 1.79433e-016 3.41221
      vertex -0.951057 34 3.69098
    endloop
  endfacet
  facet normal 0.987689 -1.55688e-016 0.156433
    outer loop
      vertex -0.951057 1.58715e-016 3.69098
      vertex -0.951057 34 3.69098
      vertex -1 34 4
    endloop
  endfacet
  facet normal 0.987689 -1.55688e-016 0.156433
    outer loop
      vertex -1 1.22461e-016 4
      vertex -0.951057 1.58715e-016 3.69098
      vertex -1 34 4
    endloop
  endfacet
  facet normal -0.768221 0 0.640184
    outer loop
      vertex -1 32 8.8
      vertex -5 32 4
      vertex -1 2 8.8
    endloop
  endfacet
  facet normal -0.768221 0 0.640184
    outer loop
      vertex -1 2 8.8
      vertex -5 32 4
      vertex -5 2 4
    endloop
  endfacet
  facet normal -1 0 0
    outer loop
      vertex -1 2 8.8
      vertex -1 2 27.8571
      vertex -1 32 8.8
    endloop
  endfacet
  facet normal -1 0 0
    outer loop
      vertex -1 32 8.8
      vertex -1 2 27.8571
      vertex -1 7 35
    endloop
  endfacet
  facet normal -1 0 0
    outer loop
      vertex -1 32 8.8
      vertex -1 7 35
      vertex -1 32 35
    endloop
  endfacet
  facet normal 0 0.819232 -0.573462
    outer loop
      vertex -1 2 27.8571
      vertex -1.42857 2 27.8571
      vertex -1 7 35
    endloop
  endfacet
  facet normal 0 0.819232 -0.573462
    outer loop
      vertex -1 7 35
      vertex -1.42857 2 27.8571
      vertex -5 7 35
    endloop
  endfacet
  facet normal -0.894427 0 -0.447214
    outer loop
      vertex -5 7 35
      vertex -1.42857 2 27.8571
      vertex -5 2 35
    endloop
  endfacet
  facet normal 0 1 0
    outer loop
      vertex -5 7 35
      vertex -5 7 53
      vertex -1 7 35
    endloop
  endfacet
  facet normal 0 1 0
    outer loop
      vertex -2 7 43
      vertex -5 7 53
      vertex -2 7 53
    endloop
  endfacet
  facet normal 0 1 0
    outer loop
      vertex -1 7 35
      vertex -5 7 53
      vertex -2 7 43
    endloop
  endfacet
  facet normal 0 1 0
    outer loop
      vertex 2 7 43
      vertex 2 7 53
      vertex 5 7 53
    endloop
  endfacet
  facet normal 0 1 0
    outer loop
      vertex 2 7 43
      vertex 5 7 53
      vertex 5 7 35
    endloop
  endfacet
  facet normal 0 1 0
    outer loop
      vertex 2 7 43
      vertex 5 7 35
      vertex 1 7 35
    endloop
  endfacet
  facet normal 0 1 0
    outer loop
      vertex 2 7 43
      vertex 1 7 35
      vertex -1 7 35
    endloop
  endfacet
  facet normal 0 1 0
    outer loop
      vertex 2 7 43
      vertex -1 7 35
      vertex -2 7 43
    endloop
  endfacet
  facet normal 0 0.819232 -0.573462
    outer loop
      vertex 1 2 27.8571
      vertex 1 7 35
      vertex 1.42857 2 27.8571
    endloop
  endfacet
  facet normal 0 0.819232 -0.573462
    outer loop
      vertex 1.42857 2 27.8571
      vertex 1 7 35
      vertex 5 7 35
    endloop
  endfacet
  facet normal 0.894427 0 -0.447214
    outer loop
      vertex 5 2 35
      vertex 1.42857 2 27.8571
      vertex 5 7 35
    endloop
  endfacet
  facet normal 0 1 0
    outer loop
      vertex 1 2 8.8
      vertex 1 2 27.8571
      vertex 5 2 4
    endloop
  endfacet
  facet normal 0 1 0
    outer loop
      vertex 5 2 4
      vertex 1 2 27.8571
      vertex 1.42857 2 27.8571
    endloop
  endfacet
  facet normal 0 1 0
    outer loop
      vertex 5 2 4
      vertex 1.42857 2 27.8571
      vertex 5 2 35
    endloop
  endfacet
  facet normal 0 1 0
    outer loop
      vertex 5 2 4
      vertex 5 2 35
      vertex 25 2 35
    endloop
  endfacet
  facet normal 0 1 0
    outer loop
      vertex 5 2 4
      vertex 25 2 35
      vertex 72.5 2 4
    endloop
  endfacet
  facet normal 0 0 1
    outer loop
      vertex 5 32 4
      vertex 5 2 4
      vertex 72.5 2 4
    endloop
  endfacet
  facet normal 0 0 1
    outer loop
      vertex 72.5 32 4
      vertex 5 32 4
      vertex 72.5 2 4
    endloop
  endfacet
  facet normal 0 -1 0
    outer loop
      vertex 1 32 35
      vertex 1 32 8.8
      vertex 5 32 4
    endloop
  endfacet
  facet normal 0 -1 0
    outer loop
      vertex 25 32 35
      vertex 1 32 35
      vertex 72.5 32 4
    endloop
  endfacet
  facet normal 0 -1 0
    outer loop
      vertex 72.5 32 4
      vertex 1 32 35
      vertex 5 32 4
    endloop
  endfacet
  facet normal 1 0 0
    outer loop
      vertex 1 2 27.8571
      vertex 1 2 8.8
      vertex 1 32 8.8
    endloop
  endfacet
  facet normal 1 0 0
    outer loop
      vertex 1 7 35
      vertex 1 2 27.8571
      vertex 1 32 35
    endloop
  endfacet
  facet normal 1 0 0
    outer loop
      vertex 1 32 35
      vertex 1 2 27.8571
      vertex 1 32 8.8
    endloop
  endfacet
  facet normal 0.768221 0 0.640184
    outer loop
      vertex 1 32 8.8
      vertex 1 2 8.8
      vertex 5 2 4
    endloop
  endfacet
  facet normal 0.768221 0 0.640184
    outer loop
      vertex 5 32 4
      vertex 1 32 8.8
      vertex 5 2 4
    endloop
  endfacet
endsolid OpenSCAD_Model
